<?xml version="1.0" standalone="no"?>
<!DOCTYPE svg PUBLIC "-//W3C//DTD SVG 20010904//EN"
 "http://www.w3.org/TR/2001/REC-SVG-20010904/DTD/svg10.dtd">
<svg version="1.0" xmlns="http://www.w3.org/2000/svg"
 width="735.000000pt" height="488.000000pt" viewBox="0 0 735.000000 488.000000"
 preserveAspectRatio="xMidYMid meet">

<g transform="translate(0.000000,488.000000) scale(0.100000,-0.100000)"
fill="#000000" stroke="none">
<path d="M4745 4280 c-423 -14 -864 -47 -1118 -85 -60 -9 -124 -13 -161 -9
-53 5 -72 2 -127 -20 -36 -14 -79 -26 -96 -26 -17 0 -73 -11 -124 -24 -152
-38 -404 -166 -727 -368 -79 -49 -156 -91 -172 -93 -31 -4 -98 -36 -143 -67
-27 -20 -28 -21 -9 -34 15 -10 61 -12 226 -7 204 6 208 7 216 29 11 27 128 98
335 204 227 115 354 149 553 150 63 0 92 -4 92 -12 0 -6 -19 -45 -42 -87 -23
-42 -59 -110 -81 -151 -33 -63 -43 -75 -65 -77 -15 0 -133 -6 -262 -13 -129
-6 -266 -14 -305 -18 -117 -12 1680 -5 1974 7 151 6 276 9 279 7 2 -3 -8 -38
-23 -79 l-26 -74 -257 -11 c-471 -22 -865 -80 -1267 -186 -306 -81 -423 -126
-529 -206 -91 -68 -245 -243 -225 -255 12 -8 85 -1 270 24 140 20 189 43 189
90 0 22 2 23 13 9 11 -15 21 -10 99 42 78 51 85 59 65 65 -12 4 -25 7 -29 6
-5 -1 -8 3 -8 8 0 5 -10 11 -22 14 -13 2 3 2 35 1 33 -1 61 -5 65 -8 3 -3 0
-6 -7 -6 -7 0 -10 -4 -7 -9 3 -5 37 7 75 25 38 19 84 37 103 41 l35 5 6 -98
c4 -54 11 -102 16 -107 17 -17 395 34 503 69 29 9 59 29 78 50 39 44 106 177
121 240 7 27 16 56 20 65 10 20 67 27 439 50 204 12 216 17 236 94 12 46 67
173 192 436 55 116 132 250 166 287 58 65 161 84 316 58 52 -8 96 -14 98 -12
2 2 -48 17 -110 32 -99 25 -133 29 -278 30 -91 1 -205 4 -255 7 -49 3 -202 1
-340 -3z m-860 -423 c-81 -20 -115 -64 -139 -180 l-13 -62 -41 -3 c-27 -2 -42
1 -42 8 0 17 59 149 83 186 12 18 30 38 42 45 24 16 91 26 125 20 22 -4 20 -6
-15 -14z m266 -47 c5 0 9 -30 9 -67 0 -77 -10 -74 -34 9 -20 69 -20 72 0 64 9
-3 20 -6 25 -6z m242 -117 c-7 -2 -19 -2 -25 0 -7 3 -2 5 12 5 14 0 19 -2 13
-5z m457 -302 c0 -9 -329 -26 -338 -17 -3 3 21 7 54 7 58 1 262 14 277 17 4 1
7 -2 7 -7z m-367 -28 c-13 -2 -33 -2 -45 0 -13 2 -3 4 22 4 25 0 35 -2 23 -4z
m-258 -75 c-8 -21 -169 -43 -208 -29 -35 14 -50 14 -42 1 8 -12 -5 -13 -24 -1
-7 5 -9 11 -5 14 10 6 67 10 104 7 23 -1 24 -2 5 -11 -15 -7 -11 -8 19 -5 21
3 47 13 57 22 21 19 80 34 92 24 4 -4 5 -14 2 -22z m-335 -38 c-11 -7 -5 -10
25 -11 26 -1 31 -3 15 -6 -83 -13 -419 -79 -551 -108 -269 -59 -372 -108 -501
-238 -83 -85 -88 -88 -140 -93 -39 -4 -49 -3 -38 5 8 6 32 11 52 11 21 0 37 4
35 9 -4 17 44 71 64 71 14 0 19 5 16 14 -7 17 45 68 64 64 8 -2 14 5 14 15 0
24 55 59 71 46 13 -11 32 7 20 18 -9 9 45 43 68 43 11 0 16 -5 13 -14 -5 -11
0 -12 25 -2 19 7 24 12 14 14 -28 6 -17 21 24 33 42 13 65 5 40 -12 -12 -9
-12 -10 3 -5 10 3 23 6 28 6 4 0 6 6 3 14 -7 18 3 24 54 32 35 5 42 4 42 -9 0
-10 6 -14 15 -11 8 4 12 11 9 16 -4 6 0 14 7 19 19 12 89 11 89 -1 0 -5 7 -10
15 -10 8 0 15 8 15 19 0 14 10 20 41 25 44 7 70 -1 48 -15 -11 -7 -10 -9 3 -9
28 0 47 11 41 25 -5 15 19 24 72 28 20 1 29 -2 27 -11 -2 -9 6 -12 20 -10 15
2 22 9 20 20 -3 18 19 24 93 26 29 1 36 -1 25 -8z m127 -6 c-3 -3 -12 -4 -19
-1 -8 3 -5 6 6 6 11 1 17 -2 13 -5z m-16 -77 c26 -1 54 -9 64 -17 16 -13 16
-15 0 -26 -13 -10 -14 -16 -5 -34 14 -26 -2 -50 -32 -50 -11 0 -29 -11 -40
-25 -11 -14 -26 -25 -34 -25 -8 0 -14 -9 -14 -21 0 -11 -5 -19 -11 -17 -6 2
-9 8 -8 13 2 6 -10 13 -27 16 l-29 7 27 1 c58 2 117 52 86 72 -29 20 -61 22
-70 5 -7 -12 -14 -14 -27 -7 -12 7 -22 6 -28 0 -7 -7 -16 -4 -27 12 -21 30
-20 34 6 59 31 28 41 25 34 -11 -4 -22 -2 -29 7 -26 6 2 15 17 18 33 5 24 7
26 13 12 5 -10 5 -26 1 -35 -4 -11 5 -7 24 11 17 17 28 33 23 38 -4 4 -33 9
-65 10 -31 2 -57 7 -57 11 0 5 28 6 63 3 34 -3 83 -7 108 -9z m-293 -78 c60 2
67 -6 33 -38 -17 -16 -36 -51 -47 -85 -13 -43 -25 -61 -42 -67 -13 -5 -27 -7
-31 -4 -5 2 -11 46 -15 96 -7 99 -1 115 39 102 11 -3 39 -5 63 -4z m141 -93
c16 -18 15 -18 -16 -3 -24 13 -30 21 -26 38 6 20 6 20 16 3 5 -11 17 -27 26
-38z m-644 23 c-7 -10 -35 -1 -35 11 0 5 9 6 20 3 11 -3 17 -9 15 -14z m-55
-55 c0 -20 -2 -23 -13 -12 -8 7 -12 20 -9 30 6 25 22 12 22 -18z m32 -6 c-3
-14 -2 -19 6 -14 7 4 12 2 12 -3 0 -6 -7 -11 -15 -11 -15 0 -21 31 -8 43 10
11 11 8 5 -15z"/>
<path d="M3970 3141 c0 -6 4 -13 10 -16 6 -3 7 1 4 9 -7 18 -14 21 -14 7z"/>
<path d="M5430 4187 c-86 -27 -157 -140 -342 -547 l-97 -215 92 -5 c62 -3 103
-11 125 -23 37 -20 95 -20 272 3 66 8 166 10 325 5 274 -8 277 -8 292 -6 8 1
9 11 3 34 -18 73 -20 87 -10 87 5 0 10 -8 11 -17 0 -16 1 -16 8 1 7 19 8 19
15 0 8 -19 8 -19 16 1 8 19 9 19 9 -3 1 -13 5 -21 10 -17 17 10 91 -7 91 -21
0 -8 4 -14 10 -14 6 0 6 9 -1 26 -17 45 -3 37 20 -11 11 -24 21 -47 21 -50 0
-3 -26 -5 -57 -5 -106 0 -89 -16 30 -29 111 -11 116 -10 207 16 l94 26 38 -20
c21 -12 38 -19 38 -16 0 24 -211 363 -276 445 -63 78 -93 102 -195 158 -286
158 -606 242 -749 197z m520 -536 c8 -29 7 -46 -2 -66 -12 -27 -12 -27 -20 -4
l-9 22 -182 -8 c-277 -13 -324 -10 -367 26 l-25 21 30 -7 c82 -19 437 7 500
35 57 26 63 25 75 -19z"/>
<path d="M5101 3242 c-12 -4 -2 -32 11 -32 5 0 7 4 3 9 -3 6 17 11 47 13 l53
3 -53 5 c-28 3 -56 4 -61 2z"/>
<path d="M2698 3173 c7 -3 16 -2 19 1 4 3 -2 6 -13 5 -11 0 -14 -3 -6 -6z"/>
<path d="M2588 3163 c12 -2 30 -2 40 0 9 3 -1 5 -23 4 -22 0 -30 -2 -17 -4z"/>
<path d="M2523 3153 c9 -2 23 -2 30 0 6 3 -1 5 -18 5 -16 0 -22 -2 -12 -5z"/>
<path d="M2453 3143 c9 -2 23 -2 30 0 6 3 -1 5 -18 5 -16 0 -22 -2 -12 -5z"/>
<path d="M2343 3133 c9 -2 23 -2 30 0 6 3 -1 5 -18 5 -16 0 -22 -2 -12 -5z"/>
<path d="M2690 3103 c-55 -21 -85 -25 -200 -27 -74 -2 -259 -8 -410 -14 -304
-13 -1267 -17 -1326 -6 l-37 7 7 -114 c8 -119 38 -316 55 -361 14 -38 36 -46
155 -57 165 -16 817 -34 956 -26 155 8 190 23 315 130 250 216 338 311 351
381 6 31 24 49 24 23 0 -8 17 -9 53 -5 58 8 91 0 80 -18 -4 -6 1 -5 11 3 18
15 39 51 50 89 9 28 1 27 -84 -5z m-1915 -103 c18 -8 17 -9 -7 -9 -16 -1 -28
4 -28 9 0 12 8 12 35 0z m1715 0 c0 -6 -32 -10 -77 -10 -54 0 -73 3 -63 10 20
13 140 13 140 0z m-1570 -10 c0 -5 -16 -10 -35 -10 -19 0 -35 5 -35 10 0 6 16
10 35 10 19 0 35 -4 35 -10z m165 0 c4 -6 -12 -10 -39 -10 -25 0 -46 5 -46 10
0 6 18 10 39 10 22 0 43 -4 46 -10z m400 0 c4 -6 -14 -9 -47 -8 l-53 1 45 7
c25 4 46 8 47 8 1 1 5 -2 8 -8z m220 -11 c-8 -12 -105 -12 -105 0 0 6 21 11
48 13 53 3 65 1 57 -13z m239 12 c7 -11 -28 -21 -76 -21 -27 0 -38 4 -38 15 0
11 13 15 54 15 30 0 57 -4 60 -9z m252 1 c-7 -12 -98 -14 -116 -2 -11 7 5 10
53 10 38 0 66 -4 63 -8z m-921 -12 c-3 -5 -24 -10 -45 -10 -21 0 -42 5 -45 10
-4 6 13 10 45 10 32 0 49 -4 45 -10z m-410 -70 c3 -6 -5 -10 -19 -10 -14 0
-28 5 -31 10 -3 6 5 10 19 10 14 0 28 -4 31 -10z m625 -12 c11 -12 20 -16 20
-10 0 23 30 12 36 -13 8 -34 -3 -45 -14 -15 -16 42 -20 6 -5 -38 8 -24 12 -46
9 -49 -3 -3 -8 6 -12 21 -7 30 -16 33 -34 11 -10 -12 -10 -18 0 -30 7 -8 17
-12 23 -8 6 3 7 1 3 -5 -4 -6 3 -34 15 -62 24 -56 18 -74 -21 -58 l-25 11 23
6 c22 6 22 6 4 41 -10 19 -23 34 -29 33 -6 -1 -10 5 -9 15 0 9 -4 17 -11 17
-6 0 -15 4 -20 9 -5 5 -2 6 7 1 8 -4 1 7 -17 24 -18 17 -44 36 -58 41 -14 6
-23 14 -20 20 9 15 31 12 45 -5 7 -8 17 -15 22 -15 6 0 5 7 -2 15 -13 16 -5
20 29 16 7 -2 10 2 6 8 -3 6 -18 11 -33 11 -26 1 -26 1 -8 15 28 21 52 19 76
-7z m800 10 c0 -4 -26 -7 -57 -7 -55 2 -56 2 -18 9 51 8 75 8 75 -2z m-1265
-8 c-3 -5 -19 -10 -35 -10 -16 0 -32 5 -35 10 -4 6 10 10 35 10 25 0 39 -4 35
-10z m165 0 c11 -7 4 -10 -27 -10 -23 0 -45 5 -48 10 -8 13 55 13 75 0z m626
-3 c4 -4 -17 -7 -47 -6 -42 1 -48 3 -29 9 28 9 66 8 76 -3z m229 3 c-3 -5 -28
-10 -56 -10 -27 0 -49 5 -49 10 0 6 25 10 56 10 34 0 53 -4 49 -10z m-712 -7
c-7 -2 -21 -2 -30 0 -10 3 -4 5 12 5 17 0 24 -2 18 -5z m270 0 c-7 -2 -21 -2
-30 0 -10 3 -4 5 12 5 17 0 24 -2 18 -5z m-763 -63 c0 -5 -11 -10 -25 -10 -14
0 -25 5 -25 10 0 6 11 10 25 10 14 0 25 -4 25 -10z m130 -10 c0 -5 -13 -10
-29 -10 -17 0 -33 5 -36 10 -4 6 8 10 29 10 20 0 36 -4 36 -10z m150 0 c11 -7
4 -10 -27 -10 -24 0 -43 5 -43 10 0 13 50 13 70 0z m1245 0 c-3 -5 -34 -10
-68 -10 -44 0 -58 3 -47 10 20 13 123 13 115 0z m-1060 -10 c-3 -5 -24 -10
-45 -10 -21 0 -42 5 -45 10 -4 6 13 10 45 10 32 0 49 -4 45 -10z m95 -8 c0
-10 -7 -19 -15 -19 -8 0 -11 5 -8 10 4 6 -3 8 -16 4 -18 -4 -20 -3 -10 9 17
20 49 18 49 -4z m310 8 c0 -5 -25 -10 -56 -10 -34 0 -53 4 -49 10 3 6 28 10
56 10 27 0 49 -4 49 -10z m200 0 c0 -5 -25 -10 -55 -10 -30 0 -55 5 -55 10 0
6 25 10 55 10 30 0 55 -4 55 -10z m215 0 c-3 -5 -31 -10 -61 -10 -30 0 -54 5
-54 10 0 6 27 10 61 10 37 0 58 -4 54 -10z m-1200 -69 c-2 -4 -18 -6 -34 -3
-17 2 -29 7 -26 11 2 4 18 6 34 3 17 -2 29 -7 26 -11z m503 -8 c-16 -38 -28
-51 -28 -29 0 22 18 56 30 56 6 0 5 -12 -2 -27z m-368 7 c11 -7 3 -10 -28 -10
-26 0 -41 4 -37 10 8 13 45 13 65 0z m170 -10 c0 -5 -18 -10 -39 -10 -22 0
-43 5 -46 10 -4 6 12 10 39 10 25 0 46 -4 46 -10z m130 0 c0 -5 -11 -10 -25
-10 -14 0 -25 5 -25 10 0 6 11 10 25 10 14 0 25 -4 25 -10z m815 0 c-3 -5 -29
-10 -56 -10 -31 0 -48 4 -44 10 3 6 29 10 56 10 31 0 48 -4 44 -10z m-592 -7
c-7 -2 -21 -2 -30 0 -10 3 -4 5 12 5 17 0 24 -2 18 -5z m175 0 c-16 -2 -40 -2
-55 0 -16 2 -3 4 27 4 30 0 43 -2 28 -4z m211 3 c-8 -8 -88 -10 -95 -3 -4 4
17 7 46 7 29 0 51 -2 49 -4z m-1084 -56 c3 -6 -5 -10 -19 -10 -14 0 -28 5 -31
10 -3 6 5 10 19 10 14 0 28 -4 31 -10z m130 -10 c4 -6 -6 -10 -24 -10 -16 0
-33 5 -36 10 -4 6 6 10 24 10 16 0 33 -4 36 -10z m385 6 c0 -11 -19 -15 -25
-6 -3 5 1 10 9 10 9 0 16 -2 16 -4z m-244 -14 c-5 -8 -66 -4 -66 4 0 2 16 4
36 4 19 0 33 -4 30 -8z m144 -2 c11 -7 5 -10 -22 -10 -21 0 -38 5 -38 10 0 13
40 13 60 0z m355 -10 c-3 -5 -21 -10 -40 -10 -19 0 -37 5 -40 10 -4 6 12 10
40 10 28 0 44 -4 40 -10z m170 0 c-3 -5 -22 -10 -41 -10 -19 0 -34 5 -34 10 0
6 18 10 41 10 24 0 38 -4 34 -10z m180 5 c-23 -8 -85 -10 -85 -3 0 4 21 8 48
7 26 0 43 -2 37 -4z m168 -2 c-13 -2 -35 -2 -50 0 -16 2 -5 4 22 4 28 0 40 -2
28 -4z m-1213 -53 c11 -7 7 -10 -17 -10 -18 0 -33 5 -33 10 0 13 30 13 50 0z
m130 -10 c0 -5 -11 -10 -24 -10 -14 0 -28 5 -31 10 -4 6 7 10 24 10 17 0 31
-4 31 -10z m140 -8 c0 -4 -16 -6 -35 -4 -19 2 -35 6 -35 8 0 2 16 4 35 4 19 0
35 -4 35 -8z m140 -2 c11 -7 5 -10 -22 -10 -21 0 -38 5 -38 10 0 13 40 13 60
0z m153 -7 c-13 -2 -33 -2 -45 0 -13 2 -3 4 22 4 25 0 35 -2 23 -4z m155 0
c-10 -2 -28 -2 -40 0 -13 2 -5 4 17 4 22 1 32 -1 23 -4z m160 0 c-10 -2 -28
-2 -40 0 -13 2 -5 4 17 4 22 1 32 -1 23 -4z m165 0 c-13 -2 -33 -2 -45 0 -13
2 -3 4 22 4 25 0 35 -2 23 -4z"/>
<path d="M661 3077 c-1 -10 -6 -15 -11 -12 -10 6 -9 -6 10 -75 7 -25 7 -25 13
5 4 17 3 46 -2 65 -5 19 -9 27 -10 17z"/>
<path d="M585 3009 c-4 -24 -10 -37 -14 -30 -6 9 -12 7 -22 -5 -9 -12 -10 -15
-1 -10 7 4 12 2 12 -4 0 -6 5 -8 10 -5 6 3 10 1 10 -5 0 -6 -11 -8 -27 -4 -22
4 -25 3 -13 -5 13 -9 13 -11 -2 -11 -9 0 -20 -5 -23 -10 -4 -7 2 -9 17 -5 25
6 55 -16 45 -32 -11 -19 16 -55 55 -73 23 -10 46 -16 50 -14 13 8 -2 73 -27
124 -13 25 -28 64 -35 88 -7 23 -17 42 -21 42 -4 0 -10 -19 -14 -41z"/>
<path d="M6068 3043 c7 -3 16 -2 19 1 4 3 -2 6 -13 5 -11 0 -14 -3 -6 -6z"/>
<path d="M6598 3033 c7 -3 16 -2 19 1 4 3 -2 6 -13 5 -11 0 -14 -3 -6 -6z"/>
<path d="M4745 2851 c-124 -59 -220 -173 -325 -383 -80 -163 -154 -379 -206
-610 l-39 -168 -77 0 c-42 0 -99 5 -126 10 -41 9 -52 17 -69 48 -11 20 -28 71
-37 112 -40 177 -120 458 -142 501 -26 53 -37 59 -104 59 -107 0 -402 -75
-519 -133 -130 -63 -270 -236 -395 -484 -60 -120 -66 -151 -38 -175 29 -27
133 -74 219 -101 108 -34 224 -41 403 -24 80 8 147 12 149 10 11 -8 -34 -42
-64 -47 -60 -12 -388 -36 -483 -36 -62 0 -121 7 -175 21 -164 41 -491 139
-501 149 -7 7 16 64 77 185 48 96 87 180 87 185 0 6 -44 11 -107 12 -99 2
-101 2 -28 5 43 2 85 9 93 15 8 7 16 8 20 2 10 -13 35 -17 27 -4 -3 5 0 10 7
10 8 0 5 5 -5 11 -12 7 -146 12 -375 14 -490 5 -859 21 -1167 50 -47 4 -48 4
-15 -6 19 -6 73 -12 120 -14 47 -2 103 -9 125 -14 l40 -10 -49 5 c-27 3 -81 5
-120 5 -39 0 -134 6 -211 14 -187 20 -178 21 -172 -12 2 -16 30 -89 61 -163
31 -74 55 -139 52 -145 -2 -5 -66 -34 -141 -64 l-138 -54 -30 33 c-28 31 -30
32 -23 10 4 -14 9 -40 13 -57 3 -18 9 -33 14 -33 5 0 15 -13 24 -29 18 -37 66
-66 130 -81 33 -8 58 -22 75 -42 26 -30 76 -47 138 -48 17 0 32 -4 32 -8 0
-18 42 -52 64 -52 15 0 44 -19 79 -52 69 -67 143 -111 265 -160 96 -39 125
-55 100 -55 -28 0 -88 -36 -88 -53 0 -32 175 -99 339 -130 151 -28 695 -98
936 -120 66 -6 163 -15 215 -20 500 -52 1149 -76 1695 -62 l360 9 165 55 c368
125 672 211 1418 403 183 47 345 91 360 99 15 7 48 17 75 20 69 10 132 79 167
181 42 123 54 227 55 485 0 135 4 251 9 258 16 27 8 295 -13 390 -23 105 -40
142 -78 172 -57 45 -106 6 -175 -137 -49 -103 -90 -243 -124 -425 l-19 -97
-40 -15 c-69 -27 -101 -29 -153 -12 -49 17 -222 20 -222 5 0 -4 -39 -14 -87
-23 -174 -33 -319 -69 -358 -88 -22 -11 -56 -35 -75 -53 -29 -28 -49 -36 -120
-50 -47 -9 -95 -18 -107 -21 -34 -7 -28 9 23 60 53 53 158 107 257 132 37 9
66 19 63 21 -10 10 -153 -30 -221 -62 -39 -19 -90 -49 -115 -69 -38 -30 -46
-33 -48 -18 -5 28 -42 133 -57 161 -7 15 -18 77 -24 139 -30 294 -91 467 -210
596 -93 99 -217 124 -336 67z m-1110 -461 c-11 -5 -33 -9 -48 -9 -39 -1 -268
-55 -340 -80 -32 -11 -88 -40 -125 -65 -37 -24 -85 -51 -107 -60 l-40 -16 45
41 c61 56 134 91 265 127 130 37 288 68 345 70 23 1 23 0 5 -8z m-78 -111 c43
-16 54 -49 16 -49 -9 0 -22 -8 -29 -17 -13 -17 -13 -17 -14 0 0 14 -5 17 -20
12 -11 -4 -20 -2 -20 4 0 6 -3 10 -7 10 -5 -1 -14 -1 -22 0 -27 2 27 47 61 50
4 1 19 -4 35 -10z m3275 -1 c14 -11 15 -25 8 -103 -5 -49 -18 -132 -28 -182
-11 -52 -15 -93 -10 -93 5 0 32 22 60 48 52 50 56 72 14 72 -22 0 -23 2 -13
40 12 41 19 44 24 8 2 -12 10 -29 17 -37 8 -9 14 -27 14 -41 -1 -14 2 -38 7
-54 6 -21 5 -27 -4 -22 -17 11 -62 -22 -59 -42 2 -13 -4 -17 -24 -15 -39 2
-36 -16 14 -117 38 -76 43 -82 49 -60 11 39 10 110 -1 110 -5 0 -10 15 -10 33
l0 32 21 -25 c17 -22 19 -34 14 -95 -5 -67 -34 -219 -40 -213 -2 2 -8 32 -13
68 -13 79 -74 218 -80 181 -2 -13 2 -27 8 -31 8 -5 9 -10 2 -14 -6 -4 -10 -40
-10 -84 0 -42 -5 -89 -11 -104 -11 -28 -5 -88 9 -88 4 0 15 9 25 20 10 12 24
19 31 16 7 -3 15 0 18 7 3 7 5 6 5 -3 2 -30 -29 -61 -57 -58 -21 2 -32 14 -50
49 l-23 47 21 62 c15 44 21 84 19 139 0 42 0 81 2 86 5 15 -22 75 -34 75 -26
0 -47 34 -47 77 0 23 4 43 10 43 5 0 7 14 4 33 l-6 32 21 -25 c11 -14 21 -36
22 -50 0 -14 6 -41 13 -60 l13 -35 11 40 c6 22 16 73 22 114 9 63 8 82 -6 125
-21 66 -24 70 -37 57 -7 -7 -5 -18 7 -36 10 -15 15 -29 13 -32 -3 -2 -11 5
-17 17 -10 18 -14 19 -27 8 -14 -11 -13 -7 2 22 34 67 56 82 87 58z m-2148
-102 c16 -65 17 -86 8 -125 -6 -25 -17 -117 -23 -203 -16 -212 -10 -219 120
-144 42 24 104 58 138 75 41 20 68 41 78 61 9 18 32 37 59 49 85 37 83 38 102
-23 l17 -55 -49 -45 c-37 -34 -57 -45 -83 -46 -18 0 -89 -23 -158 -50 -139
-56 -134 -54 -131 -39 2 6 -3 14 -11 17 -8 2 -11 0 -8 -5 4 -6 -3 -8 -16 -6
-16 3 -25 -3 -34 -22 -10 -22 -9 -25 8 -25 14 0 19 -7 19 -27 0 -20 26 -53
116 -144 64 -65 127 -120 139 -123 15 -4 31 -26 53 -73 30 -66 31 -67 13 -92
-11 -14 -28 -34 -39 -44 -19 -18 -21 -17 -66 36 -25 30 -46 62 -46 71 0 28
-17 54 -119 179 -81 101 -99 117 -121 115 -32 -4 -56 -49 -41 -77 15 -26 34
-32 63 -16 24 12 26 11 41 -21 l16 -33 -34 20 -33 20 -25 -25 c-15 -14 -28
-43 -32 -67 l-7 -43 -15 27 c-7 15 -15 27 -17 27 -9 0 -46 -126 -46 -156 0
-23 -14 -50 -51 -98 -28 -36 -55 -66 -60 -66 -20 0 -24 2 -21 12 1 5 -2 7 -7
4 -13 -8 -42 4 -35 15 3 5 -2 9 -12 9 -11 0 -14 4 -7 12 5 7 22 46 38 87 19
48 37 77 51 83 22 11 34 34 114 220 37 89 40 100 28 125 -12 26 -21 29 -113
45 -55 9 -116 17 -136 17 l-37 1 10 48 c14 72 15 74 35 63 10 -6 63 -24 118
-42 55 -18 105 -34 112 -36 6 -3 21 5 32 16 19 19 21 32 21 174 0 133 -3 158
-20 192 -11 22 -20 51 -20 66 0 51 -13 118 -21 113 -5 -3 -9 -23 -9 -45 0 -21
-3 -39 -7 -39 -3 0 -23 18 -43 40 -38 41 -38 41 -16 54 34 22 66 29 66 15 0
-8 4 -7 13 3 13 18 45 26 92 24 29 -1 31 -4 49 -80z m134 53 c30 -10 75 -30
100 -45 58 -34 159 -136 190 -192 l24 -42 -36 -15 c-53 -22 -58 -19 -41 21 8
20 15 45 15 55 0 50 -205 202 -285 211 -30 3 -30 3 -27 -42 2 -25 0 -83 -4
-130 l-7 -85 -19 65 c-10 36 -16 74 -14 86 3 11 -3 48 -13 82 l-19 62 41 -6
c23 -4 66 -15 95 -25z m-1361 -25 c-3 -3 -12 -4 -19 -1 -8 3 -5 6 6 6 11 1 17
-2 13 -5z m218 -83 c-21 -19 -205 -41 -336 -40 l-134 2 146 9 c81 4 177 14
215 22 84 17 121 19 109 7z m-565 -8 c-68 -26 -67 -27 15 -34 l80 -6 -98 1
c-104 1 -127 13 -62 32 41 13 95 18 65 7z m-1957 -70 c-7 -2 -19 -2 -25 0 -7
3 -2 5 12 5 14 0 19 -2 13 -5z m44 -9 c-3 -3 -12 -4 -19 -1 -8 3 -5 6 6 6 11
1 17 -2 13 -5z m111 -1 c-10 -2 -28 -2 -40 0 -13 2 -5 4 17 4 22 1 32 -1 23
-4z m171 -9 c10 -9 -96 -3 -109 6 -10 7 4 8 45 4 33 -4 62 -8 64 -10z m598 0
c-3 -3 -12 -4 -19 -1 -8 3 -5 6 6 6 11 1 17 -2 13 -5z m-484 -11 c-7 -2 -21
-2 -30 0 -10 3 -4 5 12 5 17 0 24 -2 18 -5z m214 -10 c-20 -2 -52 -2 -70 0
-17 2 0 4 38 4 39 0 53 -2 32 -4z m3220 -55 c-12 -39 -25 -48 -117 -79 l-55
-19 80 79 c60 58 83 75 92 67 9 -8 9 -20 0 -48z m-3009 45 c-15 -2 -42 -2 -60
0 -18 2 -6 4 27 4 33 0 48 -2 33 -4z m4697 -112 c3 -5 1 -12 -5 -16 -5 -3 -10
1 -10 9 0 18 6 21 15 7z m-2358 -53 c-2 -7 5 -18 17 -25 19 -11 18 -12 -16
-13 -27 0 -38 4 -38 15 0 8 7 15 15 15 8 0 15 5 15 10 0 6 3 10 6 10 3 0 4 -6
1 -12z m838 -107 c5 -36 4 -43 -7 -34 -7 6 -26 14 -43 18 l-30 7 34 29 c19 16
36 28 37 26 1 -1 5 -22 9 -46z m-495 15 c0 -2 -7 -7 -16 -10 -8 -3 -12 -2 -9
4 6 10 25 14 25 6z m-140 -20 c0 -2 -7 -6 -15 -10 -8 -3 -15 -1 -15 4 0 6 7
10 15 10 8 0 15 -2 15 -4z m-3525 -55 c212 -20 609 -52 895 -71 172 -12 227
-23 410 -80 69 -21 196 -57 282 -79 147 -37 210 -60 222 -79 8 -14 -106 -2
-189 20 -112 29 -347 48 -365 30 -14 -15 -10 -15 -375 9 -116 8 -172 16 -204
30 -50 22 -93 24 -120 7 -27 -17 -468 26 -492 48 -22 19 -84 30 -93 15 -10
-15 -61 -14 -224 4 -147 16 -212 30 -212 45 0 14 38 12 94 -5 27 -8 77 -15
110 -15 34 0 96 -5 139 -12 89 -13 101 -8 112 54 6 29 3 38 -12 46 -25 13
-312 37 -346 28 -16 -4 -48 -25 -71 -46 -42 -39 -45 -40 -109 -37 -87 3 -92
25 -13 56 167 68 174 69 561 32z m4172 -103 c-2 -13 -4 -3 -4 22 0 25 2 35 4
23 2 -13 2 -33 0 -45z m1079 5 c4 -27 18 -79 30 -117 13 -38 24 -70 24 -70 0
-1 -37 2 -82 6 -86 7 -411 22 -700 34 -93 3 -168 10 -168 14 0 9 151 46 300
75 47 9 102 23 123 31 20 8 57 14 82 14 24 0 47 5 50 10 3 6 16 8 28 5 12 -3
83 6 157 19 74 14 138 25 142 25 4 1 10 -20 14 -46z m457 12 c-9 -16 -11 -16
-16 -1 -4 9 -2 16 4 16 6 0 7 6 3 13 -5 9 -4 9 6 0 8 -7 9 -16 3 -28z m-1988
5 c-3 -5 -11 -10 -16 -10 -6 0 -7 5 -4 10 3 6 11 10 16 10 6 0 7 -4 4 -10z
m-228 -36 c-3 -3 -12 -4 -19 -1 -8 3 -5 6 6 6 11 1 17 -2 13 -5z m557 -41 c-4
-21 -15 -62 -26 -92 -17 -51 -17 -56 -1 -73 20 -22 58 -25 50 -4 -3 8 4 57 17
108 22 86 25 93 47 90 12 -1 25 -5 28 -8 3 -3 -2 -40 -11 -84 -16 -76 -89
-250 -105 -250 -4 0 -16 19 -25 41 l-18 41 40 -6 c38 -6 54 4 30 19 -6 4 -7
12 -3 18 3 7 -3 3 -15 -7 -21 -18 -22 -18 -22 -1 0 10 -3 16 -6 12 -3 -3 -17
-2 -30 3 -19 8 -22 6 -17 -8 11 -33 -13 2 -50 71 -37 67 -37 86 -1 46 45 -50
52 -45 70 41 14 65 21 80 36 80 16 0 18 -5 12 -37z m-777 -49 c-3 -3 -12 -4
-19 -1 -8 3 -5 6 6 6 11 1 17 -2 13 -5z m-39 -61 c2 -8 -5 -13 -17 -13 -21 0
-35 13 -24 24 10 10 36 3 41 -11z m120 -65 c-11 -35 -55 -88 -72 -88 -5 0 -18
-8 -30 -17 -11 -10 9 17 44 60 36 42 66 77 67 77 1 0 -3 -15 -9 -32z m-1914
-54 c331 -32 361 -38 241 -47 -49 -4 -173 -16 -275 -27 -102 -11 -250 -27
-330 -35 -80 -9 -156 -18 -170 -22 -18 -4 -11 4 25 30 28 19 75 58 105 86 52
48 57 50 100 45 25 -2 162 -16 304 -30z m1701 -66 l16 -33 -21 24 c-11 13 -20
27 -20 32 0 18 10 8 25 -23z m79 -44 c9 -24 0 -29 -18 -11 -8 8 -12 17 -9 21
11 10 21 7 27 -10z m55 -69 c-23 -47 -23 -47 -41 -25 -9 11 -15 27 -12 34 5
13 66 47 73 40 1 -1 -7 -24 -20 -49z m626 -67 c-35 -27 -126 -77 -140 -77 -5
0 8 9 30 21 64 33 75 47 75 94 l0 43 32 -29 32 -29 -29 -23z m-78 6 c-3 -3
-12 -4 -19 -1 -8 3 -5 6 6 6 11 1 17 -2 13 -5z m-329 -55 c15 -1 15 -2 0 -6
-20 -5 -25 -33 -6 -33 6 0 9 -3 6 -6 -3 -3 -25 0 -47 6 l-42 11 33 42 33 41 3
-27 c2 -17 10 -27 20 -28z m219 -45 c-3 -3 -12 -4 -19 -1 -8 3 -5 6 6 6 11 1
17 -2 13 -5z m-174 -11 c-7 -2 -19 -2 -25 0 -7 3 -2 5 12 5 14 0 19 -2 13 -5z
m120 0 c-7 -2 -21 -2 -30 0 -10 3 -4 5 12 5 17 0 24 -2 18 -5z"/>
<path d="M6861 1924 c0 -11 3 -14 6 -6 3 7 2 16 -1 19 -3 4 -6 -2 -5 -13z"/>
<path d="M4767 1653 c6 -16 20 -17 28 -3 4 6 10 8 14 6 4 -3 13 -1 20 3 7 5
-4 8 -27 7 -27 -1 -38 -5 -35 -13z"/>
<path d="M4567 1584 c-11 -11 3 -24 18 -18 8 4 12 10 9 15 -6 11 -18 12 -27 3z"/>
<path d="M1113 1608 c-15 -18 -26 -71 -14 -64 5 4 12 20 16 36 8 37 25 30 25
-11 0 -16 9 -38 19 -48 21 -21 40 -24 241 -41 74 -6 145 -13 158 -16 15 -3 25
1 29 12 8 23 -15 92 -35 103 -14 8 -346 41 -409 41 -11 0 -25 -6 -30 -12z"/>
<path d="M1660 1570 c-12 -8 -11 -10 6 -10 23 0 89 -83 79 -100 -8 -14 15 -17
250 -34 214 -16 255 -15 255 11 0 21 -49 63 -105 89 -41 19 -79 25 -205 33
-85 6 -180 13 -210 16 -30 3 -62 1 -70 -5z"/>
<path d="M4265 1100 c-8 -13 5 -13 25 0 13 8 13 10 -2 10 -9 0 -20 -4 -23 -10z"/>
<path d="M488 2863 c7 -3 16 -2 19 1 4 3 -2 6 -13 5 -11 0 -14 -3 -6 -6z"/>
<path d="M341 2344 c-1 -76 1 -83 24 -98 14 -9 25 -23 25 -31 0 -19 -2 -19
-47 0 -19 8 -40 15 -46 15 -10 0 -5 -144 14 -340 13 -139 18 -163 32 -152 33
27 59 24 85 -8 32 -37 47 -34 80 14 28 42 26 62 -22 214 -19 59 -46 161 -61
227 -14 66 -32 125 -40 130 -7 6 -20 33 -28 60 l-16 50 0 -81z"/>
<path d="M6198 2123 c12 -2 30 -2 40 0 9 3 -1 5 -23 4 -22 0 -30 -2 -17 -4z"/>
<path d="M6030 2100 c-47 -10 -74 -18 -60 -18 14 -1 66 7 115 17 50 11 77 19
60 19 -16 0 -68 -8 -115 -18z"/>
<path d="M5835 2060 c-38 -10 -63 -18 -55 -18 8 -1 49 7 90 17 41 11 66 19 55
19 -11 0 -51 -8 -90 -18z"/>
</g>
</svg>
